<svg version="1.1" id="Layer_1" xmlns="http://www.w3.org/2000/svg" xmlns:xlink="http://www.w3.org/1999/xlink" x="0px" y="0px"
	 width="100%" viewBox="0 0 1024 703" enable-background="new 0 0 1024 703" xml:space="preserve">
<path fill="#000000" opacity="0" stroke="none" 
	d="
M735.000000,704.000000 
	C490.000061,704.000000 245.500153,704.000000 1.000164,704.000000 
	C1.000109,469.666809 1.000109,235.333618 1.000055,1.000321 
	C342.333099,1.000214 683.666199,1.000214 1024.999512,1.000107 
	C1024.999634,235.333023 1024.999634,469.666046 1024.999756,703.999512 
	C928.500000,704.000000 832.000000,704.000000 735.000000,704.000000 
M485.876343,622.890198 
	C485.876343,622.890198 485.904022,622.989929 486.221283,623.559204 
	C486.844421,623.695374 487.467560,623.831543 487.862335,623.914429 
	C487.862335,623.914429 487.808868,624.142761 488.180634,624.841248 
	C492.604889,625.797607 497.003601,627.388489 501.459198,627.567993 
	C508.950256,627.869873 516.477478,627.274841 524.841858,626.990540 
	C525.674316,626.989868 526.532654,627.123108 527.335449,626.968384 
	C540.142883,624.501648 551.491333,619.008972 562.287720,611.645447 
	C573.408264,604.060913 585.348999,597.684753 596.872131,590.683167 
	C618.329712,577.645325 639.767700,564.574585 661.160217,551.430298 
	C666.013611,548.448242 670.545105,544.941345 675.405212,541.971313 
	C684.385803,536.483276 693.566528,531.322021 702.537354,525.818542 
	C709.736023,521.402283 716.418274,516.020874 723.930725,512.272278 
	C732.204468,508.143921 738.830505,501.998199 744.698242,495.519684 
	C753.243225,486.085144 759.006348,474.325226 761.751099,461.937500 
	C763.889709,452.285614 763.284546,442.025787 764.041199,431.196869 
	C763.994080,429.782501 763.946899,428.368164 763.988464,426.025970 
	C763.939514,415.668793 763.890564,405.311646 763.960815,394.031067 
	C763.934937,379.039124 763.908997,364.047211 764.024231,348.283356 
	C763.973938,347.504089 763.923584,346.724854 763.987549,345.021240 
	C763.998596,315.130737 764.023682,285.240173 763.980103,255.349762 
	C763.977905,253.814224 763.386597,252.279526 763.059448,250.349380 
	C763.059448,250.349380 762.924927,249.977829 762.980103,249.508820 
	C762.980103,249.508820 762.866333,249.050507 762.929504,248.265045 
	C761.238037,243.495316 759.546631,238.725586 757.985352,233.227875 
	C756.696350,230.590515 755.284302,228.005325 754.139954,225.306656 
	C749.524475,214.421783 742.168091,205.681702 732.526428,199.102722 
	C722.101013,191.988968 711.268066,185.468750 700.561829,178.771286 
	C689.308838,171.731812 678.007080,164.769928 666.704773,157.809647 
	C656.374084,151.447708 645.987305,145.176514 635.673340,138.787781 
	C620.258179,129.239304 604.925232,119.557465 589.479187,110.059441 
	C579.958557,104.205002 570.367310,98.456474 560.667603,92.905266 
	C553.336060,88.709381 546.068176,84.176964 538.258179,81.097336 
	C527.673706,76.923676 516.360168,77.370560 505.059998,77.768311 
	C490.694092,78.273972 478.581055,84.301399 466.863953,91.592987 
	C460.102417,95.800720 453.818329,100.781502 447.019684,104.922394 
	C436.822418,111.133331 426.264435,116.751282 416.052460,122.939262 
	C410.580933,126.254761 405.663391,130.479416 400.219360,133.846756 
	C394.740326,137.235764 388.802399,139.876648 383.270569,143.187836 
	C371.061127,150.496048 358.986542,158.029312 346.844940,165.451111 
	C341.033600,169.003403 335.155823,172.448212 329.377258,176.052490 
	C318.746918,182.682983 307.883850,188.994202 297.670471,196.219711 
	C291.236938,200.771164 285.278809,206.280807 280.094543,212.221985 
	C275.898132,217.031097 272.429657,222.817902 269.987213,228.728455 
	C266.924103,236.141006 265.238434,244.122787 262.244354,252.373795 
	C262.209778,266.889374 262.175232,281.404968 262.000671,296.858795 
	C262.058014,311.261017 262.115356,325.663269 262.054352,340.833466 
	C262.083832,341.868225 262.113342,342.902954 261.995850,344.635498 
	C262.044250,345.105896 262.092621,345.576263 262.027649,346.970947 
	C262.066833,353.295532 262.106049,359.620087 262.020660,366.794128 
	C262.080444,368.219666 262.140228,369.645203 262.071472,371.990753 
	C262.036072,398.515198 261.991455,425.039673 262.006561,451.564087 
	C262.007050,452.421997 262.618073,453.279602 262.995239,454.962708 
	C263.809265,467.139740 269.599365,477.559357 276.008545,487.267700 
	C282.194336,496.637634 289.567505,505.083252 300.326324,510.453339 
	C310.557373,515.559998 319.659210,522.896179 329.404755,529.017822 
	C338.339508,534.630188 347.522217,539.846313 356.503845,545.385864 
	C371.600403,554.696960 386.583435,564.192322 401.691101,573.485107 
	C414.316864,581.251343 427.134857,588.706665 439.713440,596.547241 
	C449.653656,602.743164 459.206390,609.569153 469.234619,615.611816 
	C474.166931,618.583862 479.786713,620.414856 485.527100,622.888184 
	C485.527100,622.888184 485.975983,622.862244 485.876343,622.890198 
z"/>
<path fill="#79876B" opacity="1.000000" stroke="none" 
	d="
M485.095398,622.762268 
	C479.786713,620.414856 474.166931,618.583862 469.234619,615.611816 
	C459.206390,609.569153 449.653656,602.743164 439.713440,596.547241 
	C427.134857,588.706665 414.316864,581.251343 401.691101,573.485107 
	C386.583435,564.192322 371.600403,554.696960 356.503845,545.385864 
	C347.522217,539.846313 338.339508,534.630188 329.404755,529.017822 
	C319.659210,522.896179 310.557373,515.559998 300.326324,510.453339 
	C289.567505,505.083252 282.194336,496.637634 276.008545,487.267700 
	C269.599365,477.559357 263.809265,467.139740 263.011719,454.074768 
	C263.025970,428.272705 263.046631,403.358490 262.985657,378.444489 
	C262.979645,375.985931 262.473846,373.528625 262.199982,371.070740 
	C262.140228,369.645203 262.080444,368.219666 262.246094,365.996399 
	C262.361359,358.814636 262.251190,352.430664 262.141022,346.046661 
	C262.092621,345.576263 262.044250,345.105896 262.184753,344.020081 
	C262.306702,342.291626 262.239685,341.178558 262.172668,340.065491 
	C262.115356,325.663269 262.058014,311.261017 262.228149,296.017639 
	C262.623169,280.737274 262.790741,266.298096 262.958313,251.858902 
	C265.238434,244.122787 266.924103,236.141006 269.987213,228.728455 
	C272.429657,222.817902 275.898132,217.031097 280.094543,212.221985 
	C285.278809,206.280807 291.236938,200.771164 297.670471,196.219711 
	C307.883850,188.994202 318.746918,182.682983 329.377258,176.052490 
	C335.155823,172.448212 341.033600,169.003403 346.844940,165.451111 
	C358.986542,158.029312 371.061127,150.496048 383.270569,143.187836 
	C388.802399,139.876648 394.740326,137.235764 400.219360,133.846756 
	C405.663391,130.479416 410.580933,126.254761 416.052460,122.939262 
	C426.264435,116.751282 436.822418,111.133331 447.019684,104.922394 
	C453.818329,100.781502 460.102417,95.800720 466.863953,91.592987 
	C478.581055,84.301399 490.694092,78.273972 505.059998,77.768311 
	C516.360168,77.370560 527.673706,76.923676 538.258179,81.097336 
	C546.068176,84.176964 553.336060,88.709381 560.667603,92.905266 
	C570.367310,98.456474 579.958557,104.205002 589.479187,110.059441 
	C604.925232,119.557465 620.258179,129.239304 635.673340,138.787781 
	C645.987305,145.176514 656.374084,151.447708 666.704773,157.809647 
	C678.007080,164.769928 689.308838,171.731812 700.561829,178.771286 
	C711.268066,185.468750 722.101013,191.988968 732.526428,199.102722 
	C742.168091,205.681702 749.524475,214.421783 754.139954,225.306656 
	C755.284302,228.005325 756.696350,230.590515 757.693909,233.606155 
	C757.250122,234.955063 756.708801,236.068054 757.004089,236.874832 
	C761.061096,247.958908 762.231445,259.424622 762.000916,271.140869 
	C761.599487,291.537384 761.240356,311.936035 761.117004,332.335358 
	C761.095581,335.881714 762.321716,339.435638 762.973877,343.333740 
	C762.971497,344.144897 762.966858,344.608337 762.681641,345.269165 
	C762.589050,353.952972 762.776978,362.439362 762.973389,371.398987 
	C763.268433,379.566315 763.554993,387.260376 763.841614,394.954468 
	C763.890564,405.311646 763.939514,415.668793 763.772949,426.118774 
	C763.557495,418.640930 763.557495,411.070282 763.557495,403.499664 
	C763.160095,403.503296 762.762756,403.506958 762.365356,403.510590 
	C762.365356,417.773895 762.365356,432.037201 762.365356,446.300507 
	C762.424438,446.292542 762.483459,446.284546 762.542542,446.276581 
	C762.994568,441.529755 763.446655,436.782959 763.898743,432.036133 
	C763.284546,442.025787 763.889709,452.285614 761.751099,461.937500 
	C759.006348,474.325226 753.243225,486.085144 744.698242,495.519684 
	C738.830505,501.998199 732.204468,508.143921 723.930725,512.272278 
	C716.418274,516.020874 709.736023,521.402283 702.537354,525.818542 
	C693.566528,531.322021 684.385803,536.483276 675.405212,541.971313 
	C670.545105,544.941345 666.013611,548.448242 661.160217,551.430298 
	C639.767700,564.574585 618.329712,577.645325 596.872131,590.683167 
	C585.348999,597.684753 573.408264,604.060913 562.287720,611.645447 
	C551.491333,619.008972 540.142883,624.501648 527.335449,626.968384 
	C526.532654,627.123108 525.674316,626.989868 524.076416,626.940430 
	C520.500549,626.890259 517.670959,627.101868 514.882996,626.851379 
	C505.850098,626.039795 496.832428,625.058594 487.808868,624.142761 
	C487.808868,624.142761 487.862335,623.914429 487.662170,623.969116 
	C486.942657,623.679138 486.423340,623.334534 485.904022,622.989929 
	C485.904022,622.989929 485.876343,622.890198 485.878174,623.105896 
	C485.618439,623.135132 485.356903,622.948730 485.095398,622.762268 
M385.356232,357.832794 
	C384.710449,362.445892 383.849762,367.040588 383.453705,371.675018 
	C380.832092,402.352814 387.743225,430.345337 408.059082,454.057556 
	C431.162415,481.023193 461.479950,495.804199 495.370941,504.107330 
	C500.348145,505.326721 502.403961,503.499847 502.591858,498.151764 
	C502.849060,490.832245 502.582733,483.477600 503.205322,476.194824 
	C503.505951,472.677673 504.743134,468.936340 506.581329,465.921539 
	C509.882172,460.507904 515.580688,460.350922 519.242859,465.520416 
	C521.088074,468.125183 522.467102,471.510010 522.771790,474.666229 
	C523.489441,482.099365 523.520325,489.605316 523.669556,497.084961 
	C523.813049,504.276947 525.667419,505.820953 532.573242,503.602325 
	C557.238892,495.677856 579.936157,483.976318 599.852295,467.315704 
	C612.593994,456.656830 623.365234,444.196320 630.934570,429.273743 
	C646.499634,398.588135 646.157593,367.100555 635.085266,335.247559 
	C630.213440,321.232056 623.322998,308.188843 614.651611,295.440216 
	C613.693848,294.180695 612.736084,292.921173 611.582275,290.965729 
	C600.066589,277.490845 589.110657,263.482391 576.897949,250.671982 
	C560.499023,233.470474 541.962158,218.615555 521.967041,205.105240 
	C521.635620,204.927689 521.304260,204.750153 520.413452,204.056717 
	C519.726135,203.735947 519.038757,203.415161 517.914307,202.588058 
	C514.680054,202.562302 511.150940,201.709824 508.289917,202.730362 
	C505.071198,203.878479 502.455078,206.715866 498.946869,209.023529 
	C479.354126,222.901749 460.963501,238.260834 444.758514,255.952728 
	C434.136475,267.549408 424.716370,280.247070 414.177063,292.837494 
	C409.784882,300.224152 405.392700,307.610809 400.529968,315.490021 
	C399.856720,316.942139 399.183472,318.394226 398.079132,320.341461 
	C396.044769,325.226837 394.010437,330.112213 391.595886,335.518463 
	C391.381500,336.340424 391.167084,337.162415 390.508179,338.550934 
	C389.497498,342.049347 388.486816,345.547760 387.171082,349.760986 
	C386.828857,351.522491 386.486633,353.283997 385.856842,355.491455 
	C385.827087,356.013000 385.797333,356.534515 385.356232,357.832794 
z"/>
<path fill="#6D785F" opacity="1.000000" stroke="none" 
	d="
M762.971619,342.986053 
	C762.321716,339.435638 761.095581,335.881714 761.117004,332.335358 
	C761.240356,311.936035 761.599487,291.537384 762.000916,271.140869 
	C762.231445,259.424622 761.061096,247.958908 757.004089,236.874832 
	C756.708801,236.068054 757.250122,234.955063 757.628784,233.970154 
	C759.546631,238.725586 761.238037,243.495316 762.901001,248.774780 
	C762.866272,249.516174 762.883728,249.747284 762.924927,249.977829 
	C762.924927,249.977829 763.059448,250.349380 763.015015,251.029938 
	C762.970947,282.135681 762.971252,312.560883 762.971619,342.986053 
z"/>
<path fill="#828C74" opacity="1.000000" stroke="none" 
	d="
M762.973877,343.333740 
	C762.971252,312.560883 762.970947,282.135681 763.020020,251.227478 
	C763.386597,252.279526 763.977905,253.814224 763.980103,255.349762 
	C764.023682,285.240173 763.998596,315.130737 763.773254,345.343140 
	C763.348999,345.478455 763.150085,345.280731 762.962280,345.071808 
	C762.966858,344.608337 762.971497,344.144897 762.973877,343.333740 
z"/>
<path fill="#91A184" opacity="1.000000" stroke="none" 
	d="
M262.135742,371.530762 
	C262.473846,373.528625 262.979645,375.985931 262.985657,378.444489 
	C263.046631,403.358490 263.025970,428.272705 262.986328,453.662109 
	C262.618073,453.279602 262.007050,452.421997 262.006561,451.564087 
	C261.991455,425.039673 262.036072,398.515198 262.135742,371.530762 
z"/>
<path fill="#677359" opacity="1.000000" stroke="none" 
	d="
M763.969971,431.616516 
	C763.446655,436.782959 762.994568,441.529755 762.542542,446.276581 
	C762.483459,446.284546 762.424438,446.292542 762.365356,446.300507 
	C762.365356,432.037201 762.365356,417.773895 762.365356,403.510590 
	C762.762756,403.506958 763.160095,403.503296 763.557495,403.499664 
	C763.557495,411.070282 763.557495,418.640930 763.728638,426.582672 
	C763.946899,428.368164 763.994080,429.782501 763.969971,431.616516 
z"/>
<path fill="#A5A899" opacity="1.000000" stroke="none" 
	d="
M487.994751,624.492004 
	C496.832428,625.058594 505.850098,626.039795 514.882996,626.851379 
	C517.670959,627.101868 520.500549,626.890259 523.650269,626.973633 
	C516.477478,627.274841 508.950256,627.869873 501.459198,627.567993 
	C497.003601,627.388489 492.604889,625.797607 487.994751,624.492004 
z"/>
<path fill="#828C74" opacity="1.000000" stroke="none" 
	d="
M763.901245,394.492767 
	C763.554993,387.260376 763.268433,379.566315 762.974731,370.939026 
	C763.272827,363.022278 763.578003,356.038788 763.883179,349.055267 
	C763.908997,364.047211 763.934937,379.039124 763.901245,394.492767 
z"/>
<path fill="#8B9880" opacity="1.000000" stroke="none" 
	d="
M262.601318,252.116348 
	C262.790741,266.298096 262.623169,280.737274 262.298157,295.548492 
	C262.175232,281.404968 262.209778,266.889374 262.601318,252.116348 
z"/>
<path fill="#6D785F" opacity="1.000000" stroke="none" 
	d="
M763.953735,348.669312 
	C763.578003,356.038788 763.272827,363.022278 762.966309,370.465790 
	C762.776978,362.439362 762.589050,353.952972 762.681702,345.269165 
	C763.150085,345.280731 763.348999,345.478455 763.716125,345.805298 
	C763.923584,346.724854 763.973938,347.504089 763.953735,348.669312 
z"/>
<path fill="#8B9880" opacity="1.000000" stroke="none" 
	d="
M262.084351,346.508789 
	C262.251190,352.430664 262.361359,358.814636 262.308380,365.571655 
	C262.106049,359.620087 262.066833,353.295532 262.084351,346.508789 
z"/>
<path fill="#8B9880" opacity="1.000000" stroke="none" 
	d="
M262.113525,340.449463 
	C262.239685,341.178558 262.306702,342.291626 262.258240,343.671204 
	C262.113342,342.902954 262.083832,341.868225 262.113525,340.449463 
z"/>
<path fill="#A5A899" opacity="1.000000" stroke="none" 
	d="
M486.062653,623.274536 
	C486.423340,623.334534 486.942657,623.679138 487.776337,623.995728 
	C487.467560,623.831543 486.844421,623.695374 486.062653,623.274536 
z"/>
<path fill="#A5A899" opacity="1.000000" stroke="none" 
	d="
M485.311249,622.825195 
	C485.356903,622.948730 485.618439,623.135132 485.927979,623.091919 
	C485.975983,622.862244 485.527100,622.888184 485.311249,622.825195 
z"/>
<path fill="#828C74" opacity="1.000000" stroke="none" 
	d="
M762.952515,249.743317 
	C762.883728,249.747284 762.866272,249.516174 762.869385,249.167511 
	C762.866333,249.050507 762.980103,249.508820 762.952515,249.743317 
z"/>
<path fill="#FDFEFC" opacity="1.000000" stroke="none" 
	d="
M518.351440,203.094391 
	C519.038757,203.415161 519.726135,203.735947 520.486389,204.524811 
	C520.542358,205.644943 520.525391,206.296982 520.508423,206.949036 
	C521.048706,206.448959 521.588989,205.948883 522.129333,205.448822 
	C541.962158,218.615555 560.499023,233.470474 576.897949,250.671982 
	C589.110657,263.482391 600.066589,277.490845 611.415283,291.534912 
	C607.775391,297.618561 613.026917,295.249756 614.794617,296.028870 
	C623.322998,308.188843 630.213440,321.232056 635.085266,335.247559 
	C646.157593,367.100555 646.499634,398.588135 630.934570,429.273743 
	C623.365234,444.196320 612.593994,456.656830 599.852295,467.315704 
	C579.936157,483.976318 557.238892,495.677856 532.573242,503.602325 
	C525.667419,505.820953 523.813049,504.276947 523.669556,497.084961 
	C523.520325,489.605316 523.489441,482.099365 522.771790,474.666229 
	C522.467102,471.510010 521.088074,468.125183 519.242859,465.520416 
	C515.580688,460.350922 509.882172,460.507904 506.581329,465.921539 
	C504.743134,468.936340 503.505951,472.677673 503.205322,476.194824 
	C502.582733,483.477600 502.849060,490.832245 502.591858,498.151764 
	C502.403961,503.499847 500.348145,505.326721 495.370941,504.107330 
	C461.479950,495.804199 431.162415,481.023193 408.059082,454.057556 
	C387.743225,430.345337 380.832092,402.352814 383.453705,371.675018 
	C383.849762,367.040588 384.710449,362.445892 385.712830,357.323944 
	C386.094452,356.225220 386.119415,355.635376 386.144379,355.045502 
	C386.486633,353.283997 386.828857,351.522491 387.585388,349.242432 
	C391.671112,345.882935 391.960114,342.111877 390.952667,337.984375 
	C391.167084,337.162415 391.381500,336.340424 392.120972,335.172241 
	C395.019531,331.984528 397.868042,329.393799 399.558044,326.191620 
	C400.355011,324.681458 398.928986,321.998108 398.510223,319.846344 
	C399.183472,318.394226 399.856720,316.942139 401.065521,315.102875 
	C408.909058,309.021301 412.955322,301.399384 414.757996,292.451599 
	C424.716370,280.247070 434.136475,267.549408 444.758514,255.952728 
	C460.963501,238.260834 479.354126,222.901749 499.666107,208.930313 
	C502.252502,208.234634 504.113159,207.610977 505.989014,207.036804 
	C507.366608,206.615143 509.216431,205.493774 510.075745,206.002335 
	C514.222229,208.456299 516.168640,205.644058 518.351440,203.094391 
M553.514893,391.776672 
	C554.771484,391.077332 556.028015,390.377991 557.945007,389.569794 
	C558.632080,389.049988 559.319092,388.530212 560.462524,387.503876 
	C563.217651,385.961609 565.972839,384.419342 569.528748,382.867310 
	C576.081238,379.947174 582.772583,377.286804 589.082703,373.913300 
	C590.550049,373.128784 590.719421,369.916504 591.829895,367.140747 
	C593.906799,363.871826 595.180786,360.379730 592.672852,356.906647 
	C590.038574,353.258484 586.044739,352.494598 581.930420,353.544525 
	C578.915039,354.314056 575.884460,355.459961 573.201294,357.022919 
	C558.973938,365.310455 544.776733,373.656860 530.759766,382.292450 
	C527.777527,384.129761 524.855652,386.849396 523.188660,389.870300 
	C519.958313,395.724426 523.048523,401.098907 529.764160,401.532715 
	C533.119019,401.749390 536.568542,400.499756 540.623169,400.262848 
	C550.170593,402.065369 552.665771,400.441376 553.514893,391.776672 
M560.279724,432.187897 
	C569.295959,426.871124 578.364807,421.640137 587.286682,416.169403 
	C589.202087,414.994904 590.891968,413.159058 592.158691,411.273773 
	C596.364014,405.015015 593.233459,398.372925 585.692810,398.244202 
	C582.067078,398.182343 577.995239,399.207672 574.838379,400.997894 
	C559.941406,409.446045 545.233215,418.234161 530.604126,427.141418 
	C527.853699,428.816101 525.231079,431.235840 523.488708,433.921173 
	C519.681030,439.789459 522.952209,445.943573 529.960327,446.419403 
	C532.559631,446.595856 535.221375,445.852539 538.236389,446.071167 
	C541.734558,447.667480 546.626831,444.606659 549.725037,438.912872 
	C550.075073,438.852539 550.425171,438.792236 550.617859,438.859741 
	C550.617859,438.859741 550.718933,438.951843 550.718933,438.951843 
	C550.718933,438.951843 550.954224,438.772278 550.491943,438.926605 
	C550.491943,438.926605 550.338074,438.464203 551.119446,438.714264 
	C559.768311,440.535095 561.634216,439.253815 560.279724,432.187897 
M487.351654,330.199799 
	C475.513153,323.126923 463.834320,315.762024 451.743042,309.151367 
	C447.897827,307.049072 442.938080,306.069824 438.519409,306.156769 
	C432.597595,306.273254 429.581024,312.225189 432.623383,317.381378 
	C434.393005,320.380493 437.226440,323.127747 440.209808,324.970734 
	C454.202484,333.614594 468.354706,342.006592 482.592316,350.242493 
	C485.674622,352.025452 489.257996,353.237823 492.764679,353.915039 
	C496.908630,354.715302 500.947632,353.644073 502.882599,349.382141 
	C504.787872,345.185638 503.120880,341.295044 499.916443,338.616150 
	C496.254242,335.554596 491.990662,333.212372 487.351654,330.199799 
M487.030457,377.456482 
	C475.459045,370.584412 463.958679,363.587799 452.268616,356.923920 
	C449.167511,355.156158 445.565277,353.959137 442.044342,353.320679 
	C438.333710,352.647797 434.672638,353.614532 432.583008,357.313324 
	C430.367493,361.234863 431.768433,364.831085 434.313599,367.890533 
	C435.869507,369.760803 437.974121,371.296997 440.083954,372.564331 
	C454.612976,381.291992 469.173981,389.968262 483.816986,398.502686 
	C486.204834,399.894379 488.982391,400.811615 491.698517,401.401459 
	C496.037689,402.343811 500.355774,401.565521 502.644653,397.480103 
	C504.980377,393.311096 503.308746,389.118256 499.907898,386.277100 
	C496.119537,383.112213 491.751312,380.641388 487.030457,377.456482 
M538.443970,329.948242 
	C535.327576,331.854828 532.022461,333.518311 529.154358,335.744751 
	C526.853088,337.531219 524.576172,339.718231 523.177856,342.223846 
	C520.002991,347.912903 523.181641,353.827820 529.659424,353.901672 
	C533.477966,353.945221 537.791687,353.182587 541.062927,351.332764 
	C556.243835,342.748199 571.195679,333.750793 586.080566,324.657471 
	C588.670898,323.075073 591.066162,320.639160 592.645630,318.045746 
	C596.131592,312.321869 592.825073,306.023834 586.157654,305.998993 
	C582.349121,305.984802 578.106201,306.877167 574.799194,308.702576 
	C562.728088,315.365753 550.968384,322.592957 538.443970,329.948242 
M448.864624,422.598694 
	C460.285980,429.392029 471.552795,436.469269 483.216034,442.818298 
	C487.081299,444.922455 491.965790,446.021759 496.385712,446.025818 
	C502.260956,446.031189 505.326782,440.701477 502.688721,435.401367 
	C501.152832,432.315613 498.451630,429.312653 495.515869,427.504730 
	C480.666809,418.360321 465.595490,409.574493 450.527557,400.790802 
	C448.425598,399.565460 445.970032,398.631927 443.574890,398.292755 
	C439.192902,397.672272 434.565369,397.749542 432.387543,402.556946 
	C430.336914,407.083405 432.064209,411.208832 435.760193,414.066620 
	C439.680298,417.097717 444.051147,419.545868 448.864624,422.598694 
M558.521423,391.491577 
	C558.521423,391.491577 558.486633,391.501251 558.521423,391.491577 
z"/>
<path fill="#F1F5EB" opacity="1.000000" stroke="none" 
	d="
M518.132874,202.841217 
	C516.168640,205.644058 514.222229,208.456299 510.075745,206.002335 
	C509.216431,205.493774 507.366608,206.615143 505.989014,207.036804 
	C504.113159,207.610977 502.252502,208.234634 499.981079,208.827759 
	C502.455078,206.715866 505.071198,203.878479 508.289917,202.730362 
	C511.150940,201.709824 514.680054,202.562302 518.132874,202.841217 
z"/>
<path fill="#F1F5EB" opacity="1.000000" stroke="none" 
	d="
M414.467529,292.644562 
	C412.955322,301.399384 408.909058,309.021301 401.300781,314.856598 
	C405.392700,307.610809 409.784882,300.224152 414.467529,292.644562 
z"/>
<path fill="#F1F5EB" opacity="1.000000" stroke="none" 
	d="
M398.294678,320.093903 
	C398.928986,321.998108 400.355011,324.681458 399.558044,326.191620 
	C397.868042,329.393799 395.019531,331.984528 392.311096,334.911804 
	C394.010437,330.112213 396.044769,325.226837 398.294678,320.093903 
z"/>
<path fill="#F1F5EB" opacity="1.000000" stroke="none" 
	d="
M390.730408,338.267639 
	C391.960114,342.111877 391.671112,345.882935 387.737915,348.885040 
	C388.486816,345.547760 389.497498,342.049347 390.730408,338.267639 
z"/>
<path fill="#F1F5EB" opacity="1.000000" stroke="none" 
	d="
M614.723145,295.734558 
	C613.026917,295.249756 607.775391,297.618561 611.513306,291.882874 
	C612.736084,292.921173 613.693848,294.180695 614.723145,295.734558 
z"/>
<path fill="#F1F5EB" opacity="1.000000" stroke="none" 
	d="
M522.048218,205.277039 
	C521.588989,205.948883 521.048706,206.448959 520.508423,206.949036 
	C520.525391,206.296982 520.542358,205.644943 520.766113,204.782745 
	C521.304260,204.750153 521.635620,204.927689 522.048218,205.277039 
z"/>
<path fill="#F1F5EB" opacity="1.000000" stroke="none" 
	d="
M386.000610,355.268494 
	C386.119415,355.635376 386.094452,356.225220 385.918518,356.935577 
	C385.797333,356.534515 385.827087,356.013000 386.000610,355.268494 
z"/>
<path fill="#7D8870" opacity="1.000000" stroke="none" 
	d="
M487.670013,330.378662 
	C491.990662,333.212372 496.254242,335.554596 499.916443,338.616150 
	C503.120880,341.295044 504.787872,345.185638 502.882599,349.382141 
	C500.947632,353.644073 496.908630,354.715302 492.764679,353.915039 
	C489.257996,353.237823 485.674622,352.025452 482.592316,350.242493 
	C468.354706,342.006592 454.202484,333.614594 440.209808,324.970734 
	C437.226440,323.127747 434.393005,320.380493 432.623383,317.381378 
	C429.581024,312.225189 432.597595,306.273254 438.519409,306.156769 
	C442.938080,306.069824 447.897827,307.049072 451.743042,309.151367 
	C463.834320,315.762024 475.513153,323.126923 487.670013,330.378662 
z"/>
<path fill="#7D8970" opacity="1.000000" stroke="none" 
	d="
M487.332977,377.662476 
	C491.751312,380.641388 496.119537,383.112213 499.907898,386.277100 
	C503.308746,389.118256 504.980377,393.311096 502.644653,397.480103 
	C500.355774,401.565521 496.037689,402.343811 491.698517,401.401459 
	C488.982391,400.811615 486.204834,399.894379 483.816986,398.502686 
	C469.173981,389.968262 454.612976,381.291992 440.083954,372.564331 
	C437.974121,371.296997 435.869507,369.760803 434.313599,367.890533 
	C431.768433,364.831085 430.367493,361.234863 432.583008,357.313324 
	C434.672638,353.614532 438.333710,352.647797 442.044342,353.320679 
	C445.565277,353.959137 449.167511,355.156158 452.268616,356.923920 
	C463.958679,363.587799 475.459045,370.584412 487.332977,377.662476 
z"/>
<path fill="#7D8970" opacity="1.000000" stroke="none" 
	d="
M537.854675,445.528687 
	C535.221375,445.852539 532.559631,446.595856 529.960327,446.419403 
	C522.952209,445.943573 519.681030,439.789459 523.488708,433.921173 
	C525.231079,431.235840 527.853699,428.816101 530.604126,427.141418 
	C545.233215,418.234161 559.941406,409.446045 574.838379,400.997894 
	C577.995239,399.207672 582.067078,398.182343 585.692810,398.244202 
	C593.233459,398.372925 596.364014,405.015015 592.158691,411.273773 
	C590.891968,413.159058 589.202087,414.994904 587.286682,416.169403 
	C578.364807,421.640137 569.295959,426.871124 559.733154,432.565430 
	C556.237061,434.783386 553.287598,436.623779 550.338074,438.464203 
	C550.338074,438.464203 550.491943,438.926605 550.665344,438.846069 
	C550.838745,438.765503 550.775208,438.731934 550.775208,438.731934 
	C550.425171,438.792236 550.075073,438.852539 548.919128,439.294556 
	C544.693726,441.627075 541.274170,443.577850 537.854675,445.528687 
z"/>
<path fill="#7C896F" opacity="1.000000" stroke="none" 
	d="
M568.727966,382.877075 
	C565.972839,384.419342 563.217651,385.961609 559.910034,387.804749 
	C558.666504,388.629944 557.975586,389.154266 557.284607,389.678619 
	C556.028015,390.377991 554.771484,391.077332 552.938904,392.039062 
	C548.233704,394.838745 544.104492,397.376068 539.975281,399.913391 
	C536.568542,400.499756 533.119019,401.749390 529.764160,401.532715 
	C523.048523,401.098907 519.958313,395.724426 523.188660,389.870300 
	C524.855652,386.849396 527.777527,384.129761 530.759766,382.292450 
	C544.776733,373.656860 558.973938,365.310455 573.201294,357.022919 
	C575.884460,355.459961 578.915039,354.314056 581.930420,353.544525 
	C586.044739,352.494598 590.038574,353.258484 592.672852,356.906647 
	C595.180786,360.379730 593.906799,363.871826 591.395935,367.662048 
	C589.328735,369.574768 587.832031,371.181763 586.037170,372.317749 
	C580.327148,375.931824 574.506104,379.370544 568.727966,382.877075 
z"/>
<path fill="#7D896F" opacity="1.000000" stroke="none" 
	d="
M538.767700,329.777954 
	C550.968384,322.592957 562.728088,315.365753 574.799194,308.702576 
	C578.106201,306.877167 582.349121,305.984802 586.157654,305.998993 
	C592.825073,306.023834 596.131592,312.321869 592.645630,318.045746 
	C591.066162,320.639160 588.670898,323.075073 586.080566,324.657471 
	C571.195679,333.750793 556.243835,342.748199 541.062927,351.332764 
	C537.791687,353.182587 533.477966,353.945221 529.659424,353.901672 
	C523.181641,353.827820 520.002991,347.912903 523.177856,342.223846 
	C524.576172,339.718231 526.853088,337.531219 529.154358,335.744751 
	C532.022461,333.518311 535.327576,331.854828 538.767700,329.777954 
z"/>
<path fill="#7D8970" opacity="1.000000" stroke="none" 
	d="
M448.544891,422.423645 
	C444.051147,419.545868 439.680298,417.097717 435.760193,414.066620 
	C432.064209,411.208832 430.336914,407.083405 432.387543,402.556946 
	C434.565369,397.749542 439.192902,397.672272 443.574890,398.292755 
	C445.970032,398.631927 448.425598,399.565460 450.527557,400.790802 
	C465.595490,409.574493 480.666809,418.360321 495.515869,427.504730 
	C498.451630,429.312653 501.152832,432.315613 502.688721,435.401367 
	C505.326782,440.701477 502.260956,446.031189 496.385712,446.025818 
	C491.965790,446.021759 487.081299,444.922455 483.216034,442.818298 
	C471.552795,436.469269 460.285980,429.392029 448.544891,422.423645 
z"/>
<path fill="#F1F5EB" opacity="1.000000" stroke="none" 
	d="
M569.128357,382.872192 
	C574.506104,379.370544 580.327148,375.931824 586.037170,372.317749 
	C587.832031,371.181763 589.328735,369.574768 591.223999,368.002350 
	C590.719421,369.916504 590.550049,373.128784 589.082703,373.913300 
	C582.772583,377.286804 576.081238,379.947174 569.128357,382.872192 
z"/>
<path fill="#F1F5EB" opacity="1.000000" stroke="none" 
	d="
M540.299194,400.088135 
	C544.104492,397.376068 548.233704,394.838745 552.700073,392.242279 
	C552.665771,400.441376 550.170593,402.065369 540.299194,400.088135 
z"/>
<path fill="#F1F5EB" opacity="1.000000" stroke="none" 
	d="
M550.728760,438.589233 
	C553.287598,436.623779 556.237061,434.783386 559.519043,432.830566 
	C561.634216,439.253815 559.768311,440.535095 550.728760,438.589233 
z"/>
<path fill="#F1F5EB" opacity="1.000000" stroke="none" 
	d="
M538.045532,445.799927 
	C541.274170,443.577850 544.693726,441.627075 548.460938,439.566467 
	C546.626831,444.606659 541.734558,447.667480 538.045532,445.799927 
z"/>
<path fill="#F1F5EB" opacity="1.000000" stroke="none" 
	d="
M557.614807,389.624207 
	C557.975586,389.154266 558.666504,388.629944 559.681824,388.057983 
	C559.319092,388.530212 558.632080,389.049988 557.614807,389.624207 
z"/>
<path fill="#F1F5EB" opacity="1.000000" stroke="none" 
	d="
M558.504028,391.496399 
	C558.486633,391.501251 558.521423,391.491577 558.504028,391.496399 
z"/>
<path fill="#F1F5EB" opacity="1.000000" stroke="none" 
	d="
M550.696533,438.795837 
	C550.775208,438.731934 550.838745,438.765503 550.896484,438.768890 
	C550.954224,438.772278 550.718933,438.951843 550.718933,438.951843 
	C550.718933,438.951843 550.617859,438.859741 550.696533,438.795837 
z"/>
</svg>