<svg width="614" height="503" viewBox="0 0 614 503" fill="none" xmlns="http://www.w3.org/2000/svg">
<path d="M150 151C168.204 128.751 194.107 115.991 216.333 98.4445C230.154 87.5335 243.639 76.1587 256.778 64.4445C267.055 55.2816 277.553 47.5935 289 40C290.987 38.6819 299.219 32.8897 292.722 37.6667C281.721 45.7555 269.5 52.1347 258.056 59.5556C239.733 71.4363 221.974 84.1394 203.556 95.8889C190.051 104.504 176.319 112.658 163.611 122.444C151.945 131.429 137.801 139.139 128.111 150.444C125.489 153.504 122.772 157.737 119.667 160.278C102.608 174.235 151.579 129.861 167.222 114.333C175.016 106.597 182.135 98.8564 190.944 92.2222C200.986 84.66 211.705 78.1828 222 71C236.206 61.089 251.106 51.1115 266.556 43.2222C274.56 39.135 283.459 35.0017 290.667 29.5556C293.871 27.1343 297.44 24.5823 300.944 22.6111C305.139 20.2515 297.036 25.0266 296.667 25.2778C262.858 48.2677 226.559 67.0424 193.278 90.9445C168.433 108.787 146.525 130.134 122.111 148.444C116.972 152.299 112.07 156.295 106.667 159.778C101.723 162.964 111.544 156.453 112.278 155.778C129.158 140.248 147 125.674 165.333 111.889C180.23 100.688 197.623 91.9324 210.889 78.6667C225.107 64.449 177.855 101.635 162 114C159.026 116.32 156.072 118.663 153.111 121C151.364 122.379 156.212 117.803 157.833 116.278C177.664 97.6136 200.229 81.7305 222.556 66.2222C224.444 64.9106 227.939 61.5705 230.389 61.1111C231.09 60.9797 224.203 69.0854 224.056 69.2222C204.775 87.0641 182.54 101.654 162.444 118.556C160.469 120.217 154.274 123.207 156.778 123.833C158.837 124.348 170.517 112.591 171.444 111.833C184.829 100.901 224.888 68.5708 213.611 81.6667C208.937 87.0947 202.599 91.7396 197.222 96.3333C183.187 108.324 168.911 120.017 154.778 131.889C149.657 136.19 144.67 140.606 139.833 145.222C138.614 146.386 137.426 147.525 138.889 146.167C142.332 142.97 141.799 143.407 146.333 139.389C167.96 120.228 190.176 100.259 214.667 84.7778C217.467 83.0076 225.255 77.568 223.611 80.4445C222.042 83.1898 218.96 84.736 216.5 86.7222C211.526 90.7377 204.511 96.2145 199.667 99.9445C177.122 117.304 153.921 133.819 132.111 152.111C119.025 163.087 157.615 129.371 170.833 118.556C194.319 99.3397 218.299 80.6799 242.556 62.4445C246.389 59.5629 249.269 57.9057 251.222 54C251.963 52.5194 253.588 51.4191 254.5 50C256.933 46.2153 249.334 53.7388 248.889 54.1111C235.057 65.6752 220.414 75.9426 205.389 85.8889C204.374 86.5608 203.37 87.2509 202.333 87.8889C201.775 88.2323 203.248 86.9417 203.778 86.5556C214.591 78.669 225.705 71.1253 236.889 63.7778C248.677 56.0331 284.313 33.4236 273.333 42.2778C261.042 52.1905 246.695 59.2506 234.222 68.8889C223.095 77.4875 257.694 53.3914 269.333 45.5C273.445 42.7127 286.445 35.5442 281.833 37.3889C278.576 38.6916 275.408 41.3775 272.556 43.3333C266.682 47.3607 249.64 60.2256 255.111 55.6667C259.709 51.8352 263.963 47.1648 267.333 42.2222C269.307 39.3276 271.727 38.4816 274.778 36.7778C276.561 35.7819 285.697 30.1916 280.167 35.7222C252.656 63.2327 218.178 83.2913 190 110.111C187.4 112.586 161.077 139.077 163 141" stroke="#B4CD02" stroke-width="3" stroke-linecap="round"/>
<path d="M452.485 246.429C452.095 244.106 451.36 241.78 451.373 239.46C451.447 226.112 451.662 212.764 451.903 199.418C452.041 191.752 451.339 184.249 448.907 176.996C448.73 176.468 449.054 175.74 449.281 175.096C450.431 178.207 451.445 181.328 452.443 184.783C452.422 185.268 452.432 185.419 452.457 185.57C452.457 185.57 452.538 185.813 452.511 186.259C452.485 206.612 452.485 226.521 452.485 246.429Z" fill="#6D785F"/>
<path d="M452.486 246.656C452.485 226.521 452.485 206.612 452.514 186.388C452.734 187.076 453.088 188.08 453.09 189.085C453.116 208.644 453.101 228.202 452.966 247.971C452.711 248.06 452.592 247.93 452.479 247.794C452.482 247.491 452.485 247.187 452.486 246.656Z" fill="#828C74"/>
<path d="M152.179 265.107C152.382 266.414 152.686 268.022 152.69 269.631C152.726 285.933 152.714 302.235 152.69 318.849C152.469 318.598 152.102 318.037 152.102 317.476C152.093 300.12 152.119 282.764 152.179 265.107Z" fill="#91A184"/>
<path d="M453.084 304.423C452.77 307.804 452.499 310.91 452.228 314.016C452.192 314.021 452.157 314.026 452.121 314.032C452.121 304.699 452.121 295.366 452.121 286.033C452.36 286.03 452.598 286.028 452.836 286.025C452.836 290.979 452.836 295.933 452.939 301.129C453.07 302.298 453.098 303.223 453.084 304.423Z" fill="#677359"/>
<path d="M287.606 430.629C292.905 431 298.312 431.642 303.729 432.173C305.4 432.337 307.097 432.198 308.986 432.253C304.685 432.45 300.171 432.839 295.68 432.642C293.008 432.524 290.37 431.484 287.606 430.629Z" fill="#A5A899"/>
<path d="M453.043 280.132C452.835 275.399 452.663 270.365 452.487 264.72C452.666 259.539 452.849 254.97 453.032 250.4C453.048 260.21 453.064 270.02 453.043 280.132Z" fill="#828C74"/>
<path d="M152.459 186.969C152.572 196.249 152.472 205.697 152.276 215.389C152.203 206.134 152.223 196.636 152.459 186.969Z" fill="#8B9880"/>
<path d="M453.074 250.148C452.849 254.97 452.666 259.539 452.482 264.41C452.368 259.158 452.256 253.605 452.311 247.923C452.592 247.93 452.711 248.06 452.931 248.274C453.056 248.875 453.086 249.385 453.074 250.148Z" fill="#6D785F"/>
<path d="M152.148 248.734C152.248 252.609 152.315 256.786 152.283 261.208C152.161 257.313 152.138 253.175 152.148 248.734Z" fill="#8B9880"/>
<path d="M152.166 244.769C152.241 245.246 152.282 245.975 152.253 246.877C152.166 246.375 152.148 245.698 152.166 244.769Z" fill="#8B9880"/>
<path d="M286.448 429.833C286.664 429.872 286.975 430.097 287.475 430.304C287.29 430.197 286.917 430.108 286.448 429.833Z" fill="#A5A899"/>
<path d="M285.997 429.539C286.025 429.619 286.182 429.741 286.368 429.713C286.396 429.563 286.127 429.58 285.997 429.539Z" fill="#A5A899"/>
<path d="M452.474 185.417C452.432 185.419 452.422 185.268 452.424 185.04C452.422 184.963 452.491 185.263 452.474 185.417Z" fill="#828C74"/>
<path d="M305.677 154.727C304.5 156.561 303.332 158.401 300.846 156.795C300.331 156.462 299.222 157.196 298.396 157.472C297.271 157.848 296.155 158.256 294.793 158.644C296.277 157.262 297.845 155.406 299.775 154.654C301.491 153.987 303.607 154.544 305.677 154.727Z" fill="#F1F5EB"/>
<path d="M243.519 213.489C242.612 219.217 240.186 224.205 235.624 228.023C238.077 223.282 240.711 218.448 243.519 213.489Z" fill="#F1F5EB"/>
<path d="M233.821 231.45C234.202 232.696 235.057 234.452 234.579 235.44C233.565 237.535 231.857 239.23 230.233 241.146C231.252 238.005 232.472 234.808 233.821 231.45Z" fill="#F1F5EB"/>
<path d="M229.286 243.342C230.023 245.857 229.85 248.325 227.491 250.289C227.94 248.105 228.546 245.816 229.286 243.342Z" fill="#F1F5EB"/>
<path d="M363.594 215.511C362.577 215.193 359.428 216.743 361.669 212.99C362.402 213.67 362.977 214.494 363.594 215.511Z" fill="#F1F5EB"/>
<path d="M308.025 156.321C307.75 156.76 307.426 157.088 307.102 157.415C307.112 156.988 307.122 156.561 307.256 155.997C307.579 155.976 307.778 156.092 308.025 156.321Z" fill="#F1F5EB"/>
<path d="M226.45 254.466C226.521 254.706 226.506 255.092 226.4 255.557C226.328 255.294 226.346 254.953 226.45 254.466Z" fill="#F1F5EB"/>
<path d="M336.255 272.528C339.479 270.237 342.97 267.987 346.393 265.622C347.47 264.879 348.367 263.827 349.503 262.798C349.201 264.051 349.099 266.153 348.22 266.666C344.436 268.873 340.424 270.614 336.255 272.528Z" fill="#F1F5EB"/>
<path d="M318.968 283.793C321.25 282.018 323.726 280.358 326.404 278.659C326.384 284.024 324.887 285.087 318.968 283.793Z" fill="#F1F5EB"/>
<path d="M325.222 308.986C326.756 307.7 328.525 306.496 330.493 305.218C331.761 309.421 330.642 310.259 325.222 308.986Z" fill="#F1F5EB"/>
<path d="M317.617 313.704C319.553 312.25 321.603 310.974 323.862 309.625C322.763 312.923 319.829 314.926 317.617 313.704Z" fill="#F1F5EB"/>
<path d="M329.351 276.946C329.567 276.639 329.982 276.296 330.59 275.921C330.373 276.23 329.961 276.57 329.351 276.946Z" fill="#F1F5EB"/>
<path d="M329.885 278.171C329.873 278.174 329.896 278.168 329.885 278.171V278.171Z" fill="#F1F5EB"/>
<path d="M325.203 309.121C325.25 309.079 325.288 309.101 325.323 309.103C325.358 309.106 325.216 309.223 325.216 309.223C325.216 309.223 325.156 309.163 325.203 309.121Z" fill="#F1F5EB"/>
<path d="M109.748 149.892C109.748 178.029 111.192 206.109 111.537 234.237C111.84 258.938 108.419 283.314 106.952 307.924C106.484 315.77 105.972 338.88 103.932 331.302C102.817 327.16 103.676 321.37 103.708 317.207C103.841 300.303 104.66 283.421 105.721 266.554C107.311 241.274 108.878 216.267 108.741 190.919C108.702 183.76 108.965 175.648 106.952 168.687C106.544 167.278 105.045 178.06 104.938 179.573C103.239 203.799 101.502 228.098 100.129 252.344C99.3522 266.069 99.682 279.856 99.682 293.599C99.682 295.591 99.7573 294.452 99.9057 293.141C100.757 285.621 100.734 278.007 100.912 270.45C101.702 237.017 103.242 203.695 104.491 170.291C104.814 161.662 105.046 135.832 103.932 144.392C101.572 162.525 100.847 181.265 98.8991 199.514C96.5876 221.169 97.4857 241.009 99.4583 262.543C101.028 279.675 104.715 331.091 104.715 313.883" stroke="#B4CD02" stroke-width="3" stroke-linecap="round"/>
<path d="M91.6295 336.574C103.122 350.447 117.094 361.89 130.997 373.131C149.354 387.974 168.259 402.254 188.203 414.788C217.384 433.127 247.854 449.202 277.06 467.561C280.112 469.479 289.796 473.623 286.231 473.291C277.223 472.451 265.207 462.646 258.159 457.877C234.082 441.585 210.887 424.493 185.631 410.089C167.817 399.929 150.85 389.047 133.681 377.83C120.448 369.184 105.869 363.541 94.7051 352.102C87.0676 344.276 112.998 357.611 113.886 358.119C125.358 364.68 136.109 372.154 146.99 379.663C160.183 388.767 174.233 396.417 187.644 405.161C204.731 416.303 219.871 430.663 237.58 440.744" stroke="#B4CD02" stroke-width="3" stroke-linecap="round"/>
<path d="M495.259 131.327C495.776 163.11 496.875 194.876 497.328 226.674C497.679 251.274 499.666 275.729 499.229 300.361C498.959 315.599 498.405 330.42 499.229 345.627C499.777 355.728 499.228 335.023 499.173 333.594C497.221 282.568 482.563 232.461 482.174 181.407C482.097 171.327 480.678 161.033 479.378 151.038C478.967 147.88 480.763 154.594 483.18 156.081" stroke="#B4CD02" stroke-width="3" stroke-linecap="round"/>
<path d="M486.2 129.265C486.328 141.306 488.884 152.198 491.233 163.988C495.178 183.793 499.535 203.734 502.64 223.694C505.615 242.814 503.311 261.725 503.311 280.879" stroke="#B4CD02" stroke-width="3" stroke-linecap="round"/>
<path d="M151.016 159.175C150.317 177.381 151.97 195.525 152.358 213.724C153.148 250.722 149.955 286.383 142.964 322.65C139.452 340.869 134.836 359.118 132.787 377.6C132.445 380.684 132.099 384.434 132.563 387.628C133.183 391.891 134.383 386.622 134.911 386.081" stroke="#B4CD02" stroke-width="3" stroke-linecap="round"/>
<path d="M160.075 152.987C158.726 199.663 168.165 246.238 163.487 292.912C162.48 302.959 160.55 312.874 159.684 322.937C159.368 326.607 157.99 339.007 160.075 328.323" stroke="#B4CD02" stroke-width="3" stroke-linecap="round"/>
<path d="M158.062 154.018C156.391 173.422 158.424 192.771 160.075 212.12C162.283 237.993 164.102 263.553 164.102 289.531C164.102 299.559 164.102 309.586 164.102 319.613C164.102 326.31 164.102 318.445 164.102 316.978" stroke="#B4CD02" stroke-width="3" stroke-linecap="round"/>
<path d="M135.918 181.865C179.87 143.263 229.176 111.978 273.816 74.429C276.093 72.5137 282.307 68.8753 279.632 67.6104C277.27 66.4934 269.463 74.3365 267.777 75.6323" stroke="#B4CD02" stroke-width="3" stroke-linecap="round"/>
<path d="M131.892 189.085C164.846 155.318 203.069 127.029 242.781 102.162C248.714 98.4468 254.739 94.6544 261.178 91.9053C265.511 90.0555 252.995 98.1065 252.679 98.3229" stroke="#B4CD02" stroke-width="3" stroke-linecap="round"/>
<path d="M145.984 180.834C178.467 146.927 218.928 116.091 261.738 97.2915" stroke="#B4CD02" stroke-width="3" stroke-linecap="round"/>
<path d="M308.039 63.2556C327.851 79.9171 350.949 93.2754 373.801 105.084C390.602 113.766 404.777 124.909 419.655 136.484C430.795 145.15 443.76 152.488 455.891 159.633C459.315 161.65 462.86 163.847 466.628 165.134C466.642 165.139 460.924 163.545 460.03 163.3" stroke="#B4CD02" stroke-width="3" stroke-linecap="round"/>
<path d="M309.046 62.2242C335.709 85.1986 367.167 102.094 397.511 119.294C407.95 125.212 418.6 130.692 429.162 136.37C430.085 136.866 439.104 142.077 437.885 139.579" stroke="#B4CD02" stroke-width="3" stroke-linecap="round"/>
<path d="M295.961 50.8789C328.829 72.3112 363.032 91.9911 396.281 112.877C408.253 120.398 420.019 127.771 431.454 136.14C434.664 138.489 438.148 141.387 441.911 142.673" stroke="#B4CD02" stroke-width="3" stroke-linecap="round"/>
<path d="M457.01 180.834C452.93 231.521 450.582 284.522 461.036 334.511" stroke="#B4CD02" stroke-width="3" stroke-linecap="round"/>
<path d="M450.97 175.677C453.877 214.057 462.042 251.715 465.566 290.047C466.595 301.242 468.054 312.409 468.865 323.624C469.117 327.106 469.089 330.477 469.089 325.229" stroke="#B4CD02" stroke-width="3" stroke-linecap="round"/>
<path d="M444.931 159.175C445.27 196.017 454.6 232.809 461.372 268.846C464.121 283.477 465.142 299.112 471.102 312.852" stroke="#B4CD02" stroke-width="3" stroke-linecap="round"/>
<path d="M318.105 429.399C334.14 415.022 350.872 401.523 366.923 387.169C381.261 374.348 396.336 362.276 412.218 351.529C426.425 341.916 439.353 330.71 452.984 320.301C458.719 315.921 464.719 311.138 470.878 307.409C474.271 305.354 469.425 307.351 468.082 307.695" stroke="#B4CD02" stroke-width="3" stroke-linecap="round"/>
<path d="M319.111 445.901C330.835 422.448 354.485 406.707 373.689 389.977C391.061 374.843 409.209 359.822 423.793 341.731C430.386 333.553 439.127 326.528 447.951 321.103" stroke="#B4CD02" stroke-width="3" stroke-linecap="round"/>
<path d="M327.164 440.744C348.806 415.545 373.831 393.868 399.077 372.558C408.885 364.279 419.996 355.476 427.82 345.054C431.478 340.181 439.179 336.316 443.925 332.448C445.277 331.346 457.244 321.774 454.997 325.229" stroke="#B4CD02" stroke-width="3" stroke-linecap="round"/>
<path d="M140.951 329.354C153.104 338.558 165.667 346.355 178.697 354.108C191.906 361.967 206.943 368.025 218.903 377.83C230.225 387.111 240.595 397.483 252.902 405.448C261.388 410.939 270.669 415.015 279.856 419.085C288.251 422.805 296.297 427.749 305.02 430.43" stroke="#B4CD02" stroke-width="3" stroke-linecap="round"/>
<path d="M139.944 326.26C161.143 338.127 182.898 349.035 203.917 361.213C219.596 370.297 235.049 379.446 251.337 387.341C271.65 397.188 291.828 407.262 311.059 419.085" stroke="#B4CD02" stroke-width="3" stroke-linecap="round"/>
<path d="M130.885 329.354C152.323 339.605 174.135 349.011 195.529 359.379C225.348 373.831 252.204 392.087 280.583 409C290.162 414.709 300.218 416.123 309.997 420.632C311.109 421.145 317.957 424.829 314.079 422.179" stroke="#B4CD02" stroke-width="3" stroke-linecap="round"/>
<path d="M308.039 148.861C271.746 177.299 243.998 225.423 238.587 271.94C235.614 297.499 251.637 309.458 269.119 323.968C275.723 329.449 282.018 334.865 289.138 339.668C290.894 340.853 299.687 344.825 294.954 344.825" stroke="#B4CD02" stroke-width="3" stroke-linecap="round"/>
<path d="M302 149.892C260.365 182.053 233.85 234.862 230.143 288.041C228.116 317.122 241.731 339.101 261.738 358.462C263.612 360.277 281.04 377.648 283.882 374.735" stroke="#B4CD02" stroke-width="3" stroke-linecap="round"/>
<path d="M315.085 351.013C336.843 339.732 352.495 320.986 359.318 296.865C363.881 280.733 370.143 262.758 366.252 245.812C360.482 220.686 333.996 203.813 315.533 189.085C307.745 182.873 300.781 177.115 291.934 172.583C289.789 171.484 285.834 168.489 283.882 169.489" stroke="#B4CD02" stroke-width="3" stroke-linecap="round"/>
<path d="M277.843 151.955C284.722 157.269 291.73 161.853 298.98 166.624C312.835 175.74 325.214 187.21 337.062 198.883C347.117 208.79 354.791 221.191 358.982 234.867C363.607 249.958 362.199 265.913 361.611 281.452C360.546 309.577 356.151 336.45 343.66 361.786C339.055 371.128 333.222 380.011 326.381 387.8C322.375 392.361 322.131 391.563 322.131 386.081" stroke="#B4CD02" stroke-width="3" stroke-linecap="round"/>
<path d="M319.111 372.673C335.768 359.295 346.979 346.339 353.334 325.572C356.398 315.562 359.019 305.098 357.92 294.516C356.704 282.802 350.38 271.967 345.729 261.397C341.071 250.81 333.491 242.632 327.388 232.977C322.407 225.097 319.496 216.13 313.855 208.682C310.835 204.694 290.142 180.608 286.902 183.928" stroke="#B4CD02" stroke-width="3" stroke-linecap="round"/>
<path d="M251.672 235.498C269.51 243.379 288.057 248.165 306.474 254.292C317.844 258.075 303.212 254.664 299.987 254.063" stroke="#B4CD02" stroke-width="3" stroke-linecap="round"/>
<path d="M260.731 261.283C269.656 268.555 277.533 272.783 288.244 276.868C292.066 278.326 296.136 278.681 296.967 282.942" stroke="#B4CD02" stroke-width="3" stroke-linecap="round"/>
<path d="M250.666 292.224C261.142 300.276 272.069 307.775 283.435 314.456C287.556 316.879 291.137 319.955 288.915 313.883" stroke="#B4CD02" stroke-width="3" stroke-linecap="round"/>
<path d="M255.698 289.13C264.218 296.576 273.375 301.521 283.323 306.778C286.681 308.553 294.767 311.629 296.967 313.883" stroke="#B4CD02" stroke-width="3" stroke-linecap="round"/>
<path d="M259.725 261.283C266.203 267.201 272.565 272.52 279.912 277.269C282.073 278.666 288.348 282.942 289.921 282.942" stroke="#B4CD02" stroke-width="3" stroke-linecap="round"/>
<path d="M257.711 229.309C269.015 235.467 280.854 238.356 293.165 241.801C297.351 242.972 305.887 246.191 297.974 241.686" stroke="#B4CD02" stroke-width="3" stroke-linecap="round"/>
<path d="M310.052 255.094C316.308 245.668 322.712 238.077 331.078 230.513C331.556 230.081 341.256 220.957 341.256 222.09" stroke="#B4CD02" stroke-width="3" stroke-linecap="round"/>
<path d="M310.052 254.063C314.975 250.224 345.993 224.579 347.295 227.247" stroke="#B4CD02" stroke-width="3" stroke-linecap="round"/>
<path d="M308.039 286.036C318.76 275.215 331.143 266.752 342.933 257.214C343.421 256.819 357.538 246.358 351.321 248.906" stroke="#B4CD02" stroke-width="3" stroke-linecap="round"/>
<path d="M303.007 301.507C311.687 289.995 323.055 281.093 333.93 271.826C334.707 271.163 345.565 264.377 342.262 264.377" stroke="#B4CD02" stroke-width="3" stroke-linecap="round"/>
<path d="M315.085 323.166C319.691 317.036 344.636 282.611 349.308 285.004" stroke="#B4CD02" stroke-width="3" stroke-linecap="round"/>
<path d="M316.092 318.009C322.41 308.361 329.233 300.072 337.677 292.224C340.246 289.837 344.307 285.004 348.302 285.004" stroke="#B4CD02" stroke-width="3" stroke-linecap="round"/>
<path d="M305.02 330.386C316.391 314.32 329.557 299.994 344.275 287.067" stroke="#B4CD02" stroke-width="3" stroke-linecap="round"/>
<path d="M294 490C325.298 472.537 353.898 450.465 382.889 429.5C403.219 414.798 424.087 400.859 444.5 386.278C455.28 378.577 464.971 369.254 476.222 362.222C478.199 360.987 489.899 355.864 482.778 361.111C470.704 370.007 458.943 379.365 447.222 388.722C407.63 420.329 367.578 451.8 329.444 485.167C324.627 489.382 319.462 493.696 317 499.778C316.828 500.202 316.253 501.307 316.667 501.111C318.135 500.416 319.078 498.931 320.222 497.778C330.853 487.065 340.984 475.893 351.889 465.444C371.588 446.57 393.208 430.19 413.611 412.167C423.789 403.176 432.92 393.191 442.5 383.611C446.093 380.018 450.489 377.392 454.667 374.556C458.335 372.065 461.805 369.346 465.333 366.667C466.659 365.66 469.556 362.335 469.556 364C469.556 366.135 457.264 374.018 455.556 375.444C454.262 376.525 447.016 384.016 446 383" stroke="#B4CD02" stroke-width="3" stroke-linecap="round"/>
<path d="M274 9C278.004 9.78135 281.973 10.4247 286 11" stroke="#B4CD02" stroke-width="3" stroke-linecap="round"/>
<path d="M277 2C289.222 12.4965 302.497 20.732 316.222 29.1111C329.427 37.1727 341.804 46.3272 354.444 55.2222C375.81 70.2571 396.969 82.9733 421.111 92.8889C460.547 109.086 493.215 138.548 532.333 155.556C538.689 158.319 527.308 153.945 526.111 153.333C511.049 145.633 496.827 136.353 482 128.222C463.237 117.933 443.016 111.037 423.667 102C392.959 87.6588 368.464 67.2297 341.778 47C332.757 40.162 323.108 34.5678 313.556 28.5556C309.907 26.259 306.381 23.8038 302.889 21.2778C301.565 20.3201 297.339 18.9611 298.889 18.4444C300.834 17.7962 302.69 19.983 304.556 20.8333C310.677 23.6238 316.509 26.9558 322.444 30.1111C348.589 44.0108 375.669 55.9484 402.444 68.5556C430.982 81.9924 458.185 97.4232 485.556 113C489.679 115.347 493.83 117.303 498 119.444C498.918 119.916 502.198 122.567 499.111 121.556C464.668 110.272 432.778 91.6039 399.111 78.2222C365.464 64.8484 332.444 51.8534 301.444 33C295.697 29.5047 290.736 25.304 285.444 21.2222C282.69 19.0977 289.165 22.5067 289.556 22.6667C338.668 42.7579 384.448 70.4578 433.111 91.6667C453.213 100.428 474.399 106.509 495 114" stroke="#B4CD02" stroke-width="3" stroke-linecap="round"/>
</svg>
